# xmcd
#
# Track frame offsets:
#	150
#	56035
#	115965
#	173923
#	240688
#	293825
#
# Disc length: 4701 seconds
# Revision: 0
# Processed by: cddbd v1.5.2PL0 Copyright (c) Steve Scherf et al.
# Submitted via: dBpowerAMP V12.0
#
DISCID=54125b06
DTITLE=Kreyol La - Live Paris
DYEAR=2011
DGENRE=World
TTITLE0=Plon Gaye
TTITLE1=Reve Erotik
TTITLE2=Vas Y Joe
TTITLE3=Fanm Kreyol
TTITLE4=Viktwa
TTITLE5=Kore'm
EXTD=
EXTT0=
EXTT1=
EXTT2=
EXTT3=
EXTT4=
EXTT5=
PLAYORDER=
